<?xml version="1.0" standalone="no"?>
<!DOCTYPE svg PUBLIC "-//W3C//DTD SVG 1.0//EN" "http://www.w3.org/TR/2001/REC-SVG-20010904/DTD/svg10.dtd">
<svg xmlns="http://www.w3.org/2000/svg" xmlns:xlink="http://www.w3.org/1999/xlink" id="body_1" width="35" height="26">

<g transform="matrix(0.03417969 0 0 0.03385417 0 0)">
    <path transform="matrix(32 0 0 32 128 0)"  d="M0 0L24 0L24 24L0 24L0 0z" stroke="none" fill="none" />
    <path transform="matrix(32 0 0 32 128 0)"  d="M12 2C 7.955378 2 4.309015 4.436422 2.761205 8.173166C 1.213395 11.90991 2.068953 16.21109 4.928932 19.07107C 7.788912 21.93105 12.09009 22.78661 15.82683 21.2388C 19.56358 19.69098 22 16.04462 22 12C 22 6.477152 17.52285 2 12 2zM12 20C 8.764302 20 5.847212 18.05086 4.608964 15.06147C 3.370716 12.07207 4.055162 8.63113 6.343146 6.343146C 8.63113 4.055162 12.07207 3.370716 15.06147 4.608964C 18.05086 5.847212 20 8.764302 20 12C 20 16.41828 16.41828 20 12 20z" stroke="none" fill="#000000" fill-rule="nonzero" />
    <path transform="matrix(32 0 0 32 128 0)"  d="M10.52 11.78C 11.19385 11.64307 11.66851 11.03703 11.64 10.35C 11.64 9.349999 10.87 8.749999 9.700001 8.749999L9.700001 8.749999L7 8.749999L7 15.25L9.7 15.25C 11 15.2 12 14.53 12 13.37C 12.01895 12.96174 11.8727 12.56305 11.59423 12.26389C 11.31577 11.96473 10.92857 11.79031 10.52 11.78zM8.26 9.67L9.41 9.67C 10.01 9.67 10.36 9.99 10.36 10.52C 10.36 11.05 9.98 11.41 9.11 11.41L9.11 11.41L8.259999 11.41zM9.26 14.24L8.26 14.24L8.26 12.3L9.49 12.3C 10.24 12.3 10.66 12.68 10.66 13.3C 10.66 13.92 10.24 14.24 9.219999 14.24z" stroke="none" fill="#000000" fill-rule="nonzero" />
    <path transform="matrix(32 0 0 32 128 0)"  d="M14.75 10.3C 14.13638 10.24889 13.53104 10.46837 13.09277 10.90088C 12.6545 11.33338 12.42702 11.93576 12.47 12.55L12.47 12.55L12.47 13C 12.42017 13.63197 12.65177 14.25371 13.10291 14.69907C 13.55404 15.14442 14.17873 15.36798 14.81 15.31C 15.83279 15.43149 16.78059 14.75634 17 13.75L17 13.75L15.79 13.75C 15.66058 14.18011 15.23384 14.44896 14.79 14.38C 14.48069 14.38775 14.18317 14.26122 13.97418 14.03306C 13.76519 13.8049 13.6652 13.49745 13.7 13.19L13.7 13.19L13.7 13.05L17 13.05L17 12.58C 17.04766 11.96724 16.82705 11.36396 16.39534 10.9265C 15.96364 10.48904 15.36333 10.26046 14.75 10.3zM15.75 12.3L13.73 12.3C 13.70466 12.01957 13.79871 11.74145 13.98907 11.53396C 14.17942 11.32648 14.44843 11.20886 14.73 11.21C 15.01157 11.20886 15.28058 11.32648 15.47093 11.53396C 15.66129 11.74145 15.75534 12.01957 15.73 12.3z" stroke="none" fill="#000000" fill-rule="nonzero" />
    <path transform="matrix(32 0 0 32 128 0)"  d="M13.25 9.2L16.25 9.2L16.25 9.7L13.25 9.7L13.25 9.2z" stroke="none" fill="#000000" fill-rule="nonzero" />
</g>
</svg>